# xmcd CD database file
# Copyright (C) 1997 Ti Kan
# 
# Track frame offsets:
#     180
#     19510
#     34502
#     59837
#     84797
#     105145
#     116990
#     152157
#     169150
#     187832
# 
# Disc length: 2975 seconds
# 
# Revision: 1
# Processed by: cddbd v1.4b41PL1 Copyright (c) Steve Scherf et al.
# Submitted via: DiscPlay 4.0.3
# 
DISCID=6f0b9d0a
DTITLE=Darrell Mansfield - Mansfield and Co.
DYEAR=1900
DGENRE=
TTITLE0=Crossroads
TTITLE1=Let's WorkTogether
TTITLE2=Heavy Load (Song For Jessica)
TTITLE3=Flyin' Free
TTITLE4=The Mission
TTITLE5=Boom Boom
TTITLE6=Spoonful
TTITLE7=Everybody's Business
TTITLE8=Starry Sea
TTITLE9=He Has Overcome
EXTD=
EXTT0=
EXTT1=
EXTT2=
EXTT3=
EXTT4=
EXTT5=
EXTT6=
EXTT7=
EXTT8=
EXTT9=
PLAYORDER=
